{
    "asset" : {
        "generator" : "Khronos glTF Blender I/O v1.7.33",
        "version" : "2.0"
    },
    "scene" : 0,
    "scenes" : [
        {
            "name" : "GLOBE",
            "nodes" : [
                0,
                1
            ]
        }
    ],
    "nodes" : [
        {
            "mesh" : 0,
            "name" : "Planet_Land.007",
            "rotation" : [
                -0.2371775209903717,
                0.5566827654838562,
                0.37169286608695984,
                0.7040565013885498
            ]
        },
        {
            "mesh" : 1,
            "name" : "Planet_Sphere.011",
            "rotation" : [
                -0.2371775209903717,
                0.5566827654838562,
                0.37169286608695984,
                0.7040565013885498
            ]
        }
    ],
    "materials" : [
        {
            "doubleSided" : true,
            "name" : "world_continents 03",
            "pbrMetallicRoughness" : {
                "roughnessFactor" : 0.21727272868156433
            }
        },
        {
            "doubleSided" : true,
            "name" : "world_water 05",
            "pbrMetallicRoughness" : {
                "roughnessFactor" : 0.0318182110786438
            }
        }
    ],
    "meshes" : [
        {
            "name" : "Mesh.013",
            "primitives" : [
                {
                    "attributes" : {
                        "POSITION" : 0,
                        "NORMAL" : 1,
                        "TEXCOORD_0" : 2,
                        "TEXCOORD_1" : 3,
                        "TEXCOORD_2" : 4,
                        "TEXCOORD_3" : 5,
                        "TEXCOORD_4" : 6,
                        "TEXCOORD_5" : 7,
                        "TEXCOORD_6" : 8,
                        "TEXCOORD_7" : 9
                    },
                    "indices" : 10,
                    "material" : 0
                }
            ]
        },
        {
            "name" : "Mesh.014",
            "primitives" : [
                {
                    "attributes" : {
                        "POSITION" : 11,
                        "NORMAL" : 12,
                        "TEXCOORD_0" : 13
                    },
                    "indices" : 14,
                    "material" : 1
                }
            ]
        }
    ],
    "accessors" : [
        {
            "bufferView" : 0,
            "componentType" : 5126,
            "count" : 9706,
            "max" : [
                2.003959894180298,
                2.152360439300537,
                2.084357738494873
            ],
            "min" : [
                -2.0003559589385986,
                -2.14361310005188,
                -2.1432271003723145
            ],
            "type" : "VEC3"
        },
        {
            "bufferView" : 1,
            "componentType" : 5126,
            "count" : 9706,
            "type" : "VEC3"
        },
        {
            "bufferView" : 2,
            "componentType" : 5126,
            "count" : 9706,
            "type" : "VEC2"
        },
        {
            "bufferView" : 3,
            "componentType" : 5126,
            "count" : 9706,
            "type" : "VEC2"
        },
        {
            "bufferView" : 4,
            "componentType" : 5126,
            "count" : 9706,
            "type" : "VEC2"
        },
        {
            "bufferView" : 5,
            "componentType" : 5126,
            "count" : 9706,
            "type" : "VEC2"
        },
        {
            "bufferView" : 6,
            "componentType" : 5126,
            "count" : 9706,
            "type" : "VEC2"
        },
        {
            "bufferView" : 7,
            "componentType" : 5126,
            "count" : 9706,
            "type" : "VEC2"
        },
        {
            "bufferView" : 8,
            "componentType" : 5126,
            "count" : 9706,
            "type" : "VEC2"
        },
        {
            "bufferView" : 9,
            "componentType" : 5126,
            "count" : 9706,
            "type" : "VEC2"
        },
        {
            "bufferView" : 10,
            "componentType" : 5123,
            "count" : 34695,
            "type" : "SCALAR"
        },
        {
            "bufferView" : 11,
            "componentType" : 5126,
            "count" : 698,
            "max" : [
                2.124121904373169,
                2.117750644683838,
                2.116611957550049
            ],
            "min" : [
                -2.124121904373169,
                -2.117750644683838,
                -2.116611957550049
            ],
            "type" : "VEC3"
        },
        {
            "bufferView" : 12,
            "componentType" : 5126,
            "count" : 698,
            "type" : "VEC3"
        },
        {
            "bufferView" : 13,
            "componentType" : 5126,
            "count" : 698,
            "type" : "VEC2"
        },
        {
            "bufferView" : 14,
            "componentType" : 5123,
            "count" : 3648,
            "type" : "SCALAR"
        }
    ],
    "bufferViews" : [
        {
            "buffer" : 0,
            "byteLength" : 116472,
            "byteOffset" : 0
        },
        {
            "buffer" : 0,
            "byteLength" : 116472,
            "byteOffset" : 116472
        },
        {
            "buffer" : 0,
            "byteLength" : 77648,
            "byteOffset" : 232944
        },
        {
            "buffer" : 0,
            "byteLength" : 77648,
            "byteOffset" : 310592
        },
        {
            "buffer" : 0,
            "byteLength" : 77648,
            "byteOffset" : 388240
        },
        {
            "buffer" : 0,
            "byteLength" : 77648,
            "byteOffset" : 465888
        },
        {
            "buffer" : 0,
            "byteLength" : 77648,
            "byteOffset" : 543536
        },
        {
            "buffer" : 0,
            "byteLength" : 77648,
            "byteOffset" : 621184
        },
        {
            "buffer" : 0,
            "byteLength" : 77648,
            "byteOffset" : 698832
        },
        {
            "buffer" : 0,
            "byteLength" : 77648,
            "byteOffset" : 776480
        },
        {
            "buffer" : 0,
            "byteLength" : 69390,
            "byteOffset" : 854128
        },
        {
            "buffer" : 0,
            "byteLength" : 8376,
            "byteOffset" : 923520
        },
        {
            "buffer" : 0,
            "byteLength" : 8376,
            "byteOffset" : 931896
        },
        {
            "buffer" : 0,
            "byteLength" : 5584,
            "byteOffset" : 940272
        },
        {
            "buffer" : 0,
            "byteLength" : 7296,
            "byteOffset" : 945856
        }
    ],
    "buffers" : [
        {
            "byteLength" : 953152,
            "uri" : "data:application/octet-stream;base64,"
        }
    ]
}
